<svg xmlns="http://www.w3.org/2000/svg" width="36" height="10" viewBox="0 0 36 10"><rect width="100%" height="100%" fill="#DDDDDD"/><path fill="#999999" d="m10.11 4.26-.33-.06q.04-.26.15-.45.11-.2.27-.33t.37-.2.45-.07q.25 0 .45.08.2.07.34.19.14.13.22.3t.08.37q0 .17-.04.3t-.11.23-.18.17q-.11.06-.25.11.33.1.49.31t.16.53q0 .27-.1.48-.1.2-.27.34-.17.15-.39.22-.23.07-.48.07-.27 0-.47-.06-.2-.07-.36-.19-.15-.12-.25-.3t-.18-.41l.27-.11q.11-.04.2-.02.1.02.14.1.05.09.1.17t.13.15q.07.07.17.11.11.04.25.04.15 0 .27-.05t.2-.14q.07-.08.11-.18t.04-.2q0-.13-.03-.24-.02-.11-.11-.18t-.25-.12q-.16-.04-.44-.04v-.44q.23 0 .38-.04t.24-.11.12-.18q.04-.1.04-.22 0-.25-.15-.38-.14-.14-.38-.14-.11 0-.2.04-.09.03-.17.08-.07.06-.12.13-.05.08-.07.17-.05.12-.12.15-.07.04-.19.02m4.68-1.07-1.07 1.32-.12.15q.1-.05.22-.08t.26-.03q.21 0 .4.07.2.07.34.2.15.14.24.34t.09.47q0 .26-.09.48t-.26.38q-.17.17-.41.26-.23.1-.52.1t-.52-.09-.39-.26-.25-.4q-.08-.24-.08-.52 0-.26.1-.52.1-.27.32-.56l.86-1.16q.05-.06.13-.1.09-.05.2-.05zm-.93 3.15q.15 0 .27-.05.13-.05.21-.14.09-.08.14-.21.05-.12.05-.26 0-.15-.04-.28-.05-.12-.14-.21t-.21-.13-.27-.04-.27.04q-.12.05-.2.14-.09.09-.13.21-.05.12-.05.26 0 .16.04.28t.12.21.2.14q.12.04.28.04m5.3-.36-.33.32-.84-.84-.86.85-.33-.32.86-.86-.82-.82.33-.32.81.82.81-.81.33.32-.81.81zm3.42.37h.65v.46h-2v-.46h.74V3.98l-.52.44q-.04.03-.09.04-.04.01-.08 0-.04 0-.07-.02t-.04-.05l-.2-.26 1.11-.94h.5zM26.32 5q0 .48-.1.82-.1.35-.28.58t-.42.34q-.25.11-.53.11t-.52-.11-.42-.34-.28-.58q-.1-.34-.1-.82 0-.47.1-.82t.28-.58q.18-.22.42-.33.24-.12.52-.12t.53.12q.24.11.42.33.18.23.28.58t.1.82m-.64 0q0-.39-.05-.65-.06-.25-.16-.41-.09-.15-.22-.21-.12-.06-.26-.06-.13 0-.26.06-.12.06-.21.21-.1.16-.16.41-.05.26-.05.65t.05.65q.06.26.16.41.09.16.21.22.13.06.26.06.14 0 .26-.06.13-.06.22-.22.1-.15.16-.41.05-.26.05-.65"/></svg>