<svg xmlns="http://www.w3.org/2000/svg" width="52" height="10" viewBox="0 0 52 10"><rect width="100%" height="100%" fill="#DDDDDD"/><path fill="#999999" d="m18.635 3.75-.13.76q.12-.03.23-.04t.21-.01q.29 0 .51.08.21.09.36.24t.22.35q.08.2.08.43 0 .29-.1.53t-.28.41-.43.26-.54.09q-.17 0-.32-.03-.15-.04-.29-.1-.13-.06-.24-.13-.12-.08-.21-.17l.19-.26q.06-.08.16-.08.06 0 .13.04.06.04.15.09.08.04.19.08.12.04.28.04.17 0 .3-.05.13-.06.21-.16.09-.1.13-.23.05-.14.05-.3 0-.29-.17-.46-.17-.16-.51-.16-.26 0-.53.09l-.38-.11.3-1.76h1.78v.27q0 .13-.08.21t-.28.08zm3.28 2.48h.93q.1 0 .16.06t.06.15v.37h-2.48V6.6q0-.06.02-.13.03-.07.09-.12l1.09-1.1q.14-.14.25-.27t.18-.25q.07-.13.11-.25.04-.13.04-.27 0-.13-.04-.23-.03-.1-.1-.17t-.17-.1q-.09-.04-.21-.04-.11 0-.21.04-.09.03-.16.08-.08.06-.13.13-.05.08-.07.17-.04.12-.11.15-.07.04-.2.02l-.32-.06q.04-.26.14-.45.11-.2.27-.33t.37-.2.45-.07q.25 0 .46.08.21.07.35.21.15.13.23.32.09.19.09.42 0 .2-.06.38-.06.17-.16.32t-.23.3l-.28.3-.81.83q.11-.04.23-.06t.22-.02m5.22-.25-.33.32-.84-.84-.86.85-.33-.32.86-.86-.82-.82.33-.32.81.82.81-.81.33.32-.81.81zm3.42.37h.65v.46h-2v-.46h.74V3.98l-.52.44q-.04.03-.09.04-.04.01-.08 0-.04 0-.07-.02t-.04-.05l-.2-.26 1.11-.94h.5zM34.295 5q0 .48-.1.82-.1.35-.28.58t-.42.34q-.25.11-.53.11t-.52-.11-.42-.34-.28-.58q-.1-.34-.1-.82 0-.47.1-.82t.28-.58q.18-.22.42-.33.24-.12.52-.12t.53.12q.24.11.42.33.18.23.28.58t.1.82m-.64 0q0-.39-.05-.65-.06-.25-.16-.41-.09-.15-.22-.21-.12-.06-.26-.06-.13 0-.26.06-.12.06-.21.21-.1.16-.16.41-.05.26-.05.65t.05.65q.06.26.16.41.09.16.21.22.13.06.26.06.14 0 .26-.06.13-.06.22-.22.1-.15.16-.41.05-.26.05-.65"/></svg>