<svg width="13" height="7" viewBox="0 0 13 7" fill="none" xmlns="http://www.w3.org/2000/svg">
<path d="M0.941449 3.03818C0.726082 2.82729 0.376893 2.82729 0.161526 3.03818C-0.0538419 3.24907 -0.0538419 3.59093 0.161526 3.80181L0.941449 3.03818ZM3.49276 6.3L3.1028 6.68181C3.31817 6.8927 3.66736 6.8927 3.88273 6.68181L3.49276 6.3ZM9.76526 0.921836C9.98063 0.710955 9.98063 0.369041 9.76526 0.158161C9.54988 -0.0527202 9.20075 -0.0527202 8.98538 0.158161L9.76526 0.921836ZM3.88273 3.03818C3.66736 2.82729 3.31817 2.82729 3.1028 3.03818C2.88743 3.24907 2.88743 3.59093 3.1028 3.80181L3.88273 3.03818ZM6.43404 6.3L6.0441 6.68181C6.25948 6.8927 6.60861 6.8927 6.82398 6.68181L6.43404 6.3ZM12.7065 0.921836C12.9219 0.710955 12.9219 0.369041 12.7065 0.158161C12.4912 -0.0527202 12.142 -0.0527202 11.9267 0.158161L12.7065 0.921836ZM0.161526 3.80181L3.1028 6.68181L3.88273 5.91818L0.941449 3.03818L0.161526 3.80181ZM3.88273 6.68181L9.76526 0.921836L8.98538 0.158161L3.1028 5.91818L3.88273 6.68181ZM3.1028 3.80181L6.0441 6.68181L6.82398 5.91818L3.88273 3.03818L3.1028 3.80181ZM6.82398 6.68181L12.7065 0.921836L11.9267 0.158161L6.0441 5.91818L6.82398 6.68181Z" fill="#FFFFFF"/>
</svg>
