<svg width="10" height="7" viewBox="0 0 10 7" fill="none" xmlns="http://www.w3.org/2000/svg">
<path d="M0.921836 3.03818C0.710955 2.82729 0.369041 2.82729 0.158161 3.03818C-0.0527202 3.24907 -0.0527202 3.59093 0.158161 3.80181L0.921836 3.03818ZM3.42 6.3L3.03816 6.68181C3.24904 6.8927 3.59095 6.8927 3.80184 6.68181L3.42 6.3ZM9.56181 0.921836C9.7727 0.710955 9.7727 0.369041 9.56181 0.158161C9.35093 -0.0527202 9.00907 -0.0527202 8.79818 0.158161L9.56181 0.921836ZM4.83741 4.11893C4.83741 4.61893 4.55354 4.40279 4.34266 4.61368C4.13178 4.82457 4.94181 4.15816 4.13533 4.82101L4.83741 4.11893ZM5.6582 4.18176L4.6582 5.18176C4.86909 5.39265 4.26065 6.04162 4.47154 5.83073L5.6582 4.18176ZM5.42591 5.05774C5.6368 4.84686 6.36909 3.94758 6.1582 3.73669C5.94732 3.52581 6.03633 3.97088 5.82545 4.18176L5.42591 5.05774ZM0.158161 3.80181L3.03816 6.68181L3.80184 5.91818L0.921836 3.03818L0.158161 3.80181ZM3.80184 6.68181L9.56181 0.921836L8.79818 0.158161L3.03816 5.91818L3.80184 6.68181ZM4.13533 4.82101L4.6582 5.18176L5.82545 4.6582L4.83741 4.11893L4.13533 4.82101ZM4.47154 5.83073L5.42591 5.05774L5.82545 4.18176L5.1582 5.18176L4.47154 5.83073Z" fill="#FFFFFF"/>
</svg>
